<svg width="48" height="48" viewBox="0 0 48 48" fill="none" xmlns="http://www.w3.org/2000/svg">
<path d="M34.3942 33.6194C33.3967 31.6073 32.161 29.7225 30.7136 28.0054C30.1127 27.2566 29.5807 26.4403 29.018 25.6548C28.9302 25.6452 28.8088 25.6319 28.7644 25.5382L26.8726 22.9202C27.5178 21.7795 28.2469 20.6884 29.0537 19.6557C30.398 17.7951 31.8496 16.0146 33.302 14.2273C33.6013 13.864 34.3645 13.8794 33.7773 12.7565C33.6861 12.4665 33.283 12.1559 33.0352 11.8625C31.9003 10.502 31.3827 10.2404 31.1333 10.8961C31.0765 11.0401 30.9011 11.0824 30.7828 11.165C29.7394 10.7776 30.3606 12.0271 29.5634 11.8851C29.6453 12.0919 29.6515 12.321 29.5809 12.532C29.5104 12.7429 29.3675 12.9221 29.1776 13.038C27.9619 14.0676 26.818 15.1789 25.7537 16.3644C25.0277 17.3389 24.3783 18.3684 23.8115 19.4434C22.9509 18.5091 22.2176 17.4727 21.4079 16.4483C19.9319 14.5861 18.4843 12.7133 16.9581 10.873C16.6441 10.4971 16.7764 9.72628 15.5677 10.0992C15.2634 10.1342 14.8906 10.4826 14.5557 10.6713C13.0247 11.5553 12.6799 12.0229 13.2757 12.3818C13.404 12.4573 13.4117 12.6358 13.4727 12.7654C12.8969 13.7199 14.2375 13.3272 13.9358 14.0864C14.1521 14.0471 14.3753 14.0857 14.5658 14.1953C14.7563 14.3049 14.9018 14.4785 14.9765 14.6852C15.801 16.0116 16.424 17.4936 17.3458 18.7419C18.4194 20.2254 19.7835 21.4266 20.9424 22.8169C21.0934 22.9974 21.2368 23.1838 21.3803 23.3703C20.8276 24.2385 20.2802 25.1209 19.7913 26.0303C18.7732 27.9676 17.5473 29.7455 16.953 31.8658C16.5624 33.3118 15.5919 34.5031 14.8795 35.8319C14.5872 36.3803 15.2871 37.099 16.7627 37.7182C18.2383 38.3374 18.4151 37.7831 18.6163 37.5046C19.8233 35.72 20.8773 33.8364 21.7668 31.8741C22.1914 31.0533 22.6684 30.2519 23.1575 29.4654C23.1671 29.3777 23.1242 29.2706 23.1863 29.2023C23.5774 28.5622 24.0142 27.8793 24.4135 27.2264L24.5149 27.3605C25.8699 29.0182 26.9861 30.8615 28.6017 32.3224C29.7008 33.3238 30.2982 34.7278 31.0663 36.007C31.385 36.5268 32.4012 36.2899 33.6532 35.3343C34.9053 34.3788 34.5424 33.9497 34.3942 33.6194Z" fill="black"/>
</svg>
