<svg width="143" height="28" viewBox="0 0 143 28" fill="none" xmlns="http://www.w3.org/2000/svg">
<path d="M0.02 23.64C0.02 23.4533 0.0333333 23.28 0.06 23.12C0.0866667 22.9333 0.126667 22.76 0.18 22.6C0.206667 22.28 0.286667 21.9333 0.42 21.56C0.473333 21.56 0.58 21.5867 0.74 21.64C0.846667 21.6667 1.22 21.68 1.86 21.68C2.63333 21.68 3.27333 21.4933 3.78 21.12C4.31333 20.7467 4.74 20.28 5.06 19.72C5.40667 19.1333 5.67333 18.5067 5.86 17.84C6.07333 17.1467 6.23333 16.4933 6.34 15.88C6.55333 14.76 6.71333 13.6 6.82 12.4C6.9 11.7867 6.96667 11.1867 7.02 10.6C7.1 10.0133 7.18 9.41333 7.26 8.8C7.31333 8.18667 7.38 7.61333 7.46 7.08C7.54 6.52 7.64667 5.97334 7.78 5.44C7.56667 5.36 7.34 5.29333 7.1 5.24C6.88667 5.18667 6.67333 5.13333 6.46 5.08C6.24667 5.05334 6.04667 5.04 5.86 5.04C5.7 5.01334 5.55333 5 5.42 5C5.23333 4.06667 5.23333 3.22667 5.42 2.48C5.5 1.73333 5.87333 1.16 6.54 0.760002C6.7 0.626669 6.87333 0.520002 7.06 0.440001C7.27333 0.360001 7.5 0.280001 7.74 0.200002C8.27333 0.0666674 8.83333 0 9.42 0C10.1667 0 10.7933 0.16 11.3 0.480001C11.54 0.666668 11.7667 0.866668 11.98 1.08C12.1933 1.26667 12.38 1.49333 12.54 1.76C12.9133 2.29333 13.1933 2.86667 13.38 3.48C13.78 5.13333 14.0333 6.77333 14.14 8.4C14.2733 10.0267 14.34 11.68 14.34 13.36C14.34 13.7333 14.34 14.1467 14.34 14.6C14.3667 15.0267 14.42 15.4533 14.5 15.88C14.58 16.28 14.7 16.68 14.86 17.08C15.02 17.4533 15.2467 17.7867 15.54 18.08C15.54 18.08 15.5667 18.04 15.62 17.96C15.7 17.8533 15.7933 17.6133 15.9 17.24C16.0067 16.8667 16.1267 16.32 16.26 15.6C16.42 14.8533 16.5933 13.8533 16.78 12.6C16.94 11.56 17.0733 10.7067 17.18 10.04C17.2867 9.34667 17.3667 8.61333 17.42 7.84C17.4733 6.98667 17.58 6.10667 17.74 5.2C17.9267 4.26667 18.2067 3.41333 18.58 2.64C18.98 1.86667 19.5133 1.24 20.18 0.760002C20.8467 0.253334 21.7 0 22.74 0C23.4867 0 24.0867 0.0933337 24.54 0.280001C25.0733 0.440001 25.4733 0.680001 25.74 1C26.0867 1.29333 26.3133 1.62667 26.42 2C26.5533 2.32 26.6467 2.70667 26.7 3.16C26.78 3.50667 26.7933 3.90667 26.74 4.36C26.7133 4.54667 26.6867 4.73334 26.66 4.92C26.66 5.08 26.6333 5.24 26.58 5.4C26.5267 5.58667 26.4867 5.76 26.46 5.92C26.4333 6.08 26.3933 6.25333 26.34 6.44C26.2867 6.44 26.18 6.41333 26.02 6.36C25.94 6.33333 25.5533 6.32 24.86 6.32C23.9267 6.32 23.1267 6.61333 22.46 7.2C21.7933 7.76 21.3 8.45334 20.98 9.28C20.9 9.52 20.8067 9.76 20.7 10C20.5933 10.2133 20.4733 10.5467 20.34 11C20.2333 11.4533 20.1 12.08 19.94 12.88C19.78 13.6533 19.5933 14.72 19.38 16.08C19.14 17.68 19.02 18.9867 19.02 20C19.02 21.0133 18.9933 21.84 18.94 22.48V22.64C18.9133 22.7467 18.8867 22.84 18.86 22.92C18.86 23 18.8467 23.0933 18.82 23.2V23.16C18.74 23.4533 18.62 23.7867 18.46 24.16C18.3 24.5333 18.06 24.88 17.74 25.2C17.42 25.52 17.02 25.7733 16.54 25.96C16.06 26.1733 15.46 26.24 14.74 26.16C13.9667 26.08 13.34 25.7867 12.86 25.28C12.4067 24.7733 12.06 24.16 11.82 23.44C11.58 22.6933 11.42 21.8933 11.34 21.04C11.26 20.1867 11.22 19.3733 11.22 18.6C11.2467 17.8 11.2867 17.1067 11.34 16.52C11.3933 15.9067 11.42 15.48 11.42 15.24C11.4467 13.9333 11.4067 12.6 11.3 11.24C11.22 10.5467 11.14 9.93334 11.06 9.4C10.98 8.84 10.82 8.33333 10.58 7.88C10.2067 8.89334 9.95333 10.12 9.82 11.56C9.71333 13 9.63333 14.48 9.58 16C9.52667 17.5467 9.44667 19.04 9.34 20.48C9.26 21.3067 9.12667 22.1733 8.94 23.08C8.75333 23.96 8.46 24.7733 8.06 25.52C7.66 26.24 7.12667 26.8267 6.46 27.28C5.82 27.76 4.99333 28 3.98 28C3.23333 28 2.63333 27.9067 2.18 27.72C1.7 27.56 1.3 27.32 0.98 27C0.686667 26.76 0.46 26.4267 0.3 26C0.246667 25.8133 0.193333 25.6267 0.14 25.44C0.0866667 25.2533 0.0466667 25.0533 0.02 24.84C-0.00666667 24.44 -0.00666667 24.04 0.02 23.64Z" fill="black"/>
<path d="M23.935 16.48C23.935 15.52 24.0417 14.5467 24.255 13.56C24.495 12.5733 24.8417 11.6533 25.295 10.8C25.775 9.94667 26.3617 9.18667 27.055 8.52C27.775 7.85333 28.6283 7.36 29.615 7.04C30.095 6.82667 30.5617 6.68 31.015 6.6C31.495 6.52 31.9483 6.48 32.375 6.48C33.2283 6.48 34.0283 6.62667 34.775 6.92C35.5483 7.21334 36.255 7.61334 36.895 8.12C37.535 8.62667 38.1083 9.21333 38.615 9.88C39.1217 10.52 39.5483 11.2 39.895 11.92C40.455 13.2267 40.735 14.76 40.735 16.52C40.735 17.5067 40.615 18.4933 40.375 19.48C40.1617 20.4667 39.815 21.3867 39.335 22.24C38.855 23.0933 38.255 23.8533 37.535 24.52C36.815 25.16 35.9617 25.64 34.975 25.96C34.0417 26.3067 33.175 26.48 32.375 26.48C31.4417 26.48 30.495 26.2667 29.535 25.84C28.6017 25.44 27.7883 24.9333 27.095 24.32C25.975 23.3067 25.1617 22.1333 24.655 20.8C24.175 19.44 23.935 18 23.935 16.48ZM30.775 21.36C31.335 21.6 31.8817 21.72 32.415 21.72C33.2683 21.72 34.0417 21.44 34.735 20.88C35.4283 20.32 35.9217 19.6533 36.215 18.88C36.3483 18.56 36.4417 18.2267 36.495 17.88C36.5483 17.5067 36.575 17.12 36.575 16.72C36.575 16.08 36.495 15.4 36.335 14.68C36.2017 13.9333 35.975 13.2533 35.655 12.64C35.335 12 34.9083 11.48 34.375 11.08C33.8417 10.6533 33.1883 10.44 32.415 10.44C31.855 10.44 31.3083 10.5733 30.775 10.84C30.1083 11.2133 29.615 11.6533 29.295 12.16C28.975 12.64 28.6817 13.2267 28.415 13.92C28.175 14.72 28.055 15.5867 28.055 16.52C28.055 17.5867 28.2683 18.5467 28.695 19.4C29.1217 20.2267 29.815 20.88 30.775 21.36Z" fill="black"/>
<path d="M44.1831 6.2C44.8231 6.2 45.3165 6.32 45.6631 6.56C46.0098 6.77333 46.2631 7.04 46.4231 7.36C46.6098 7.68 46.7298 8.01334 46.7831 8.36C46.8365 8.68 46.8898 8.94667 46.9431 9.16C47.1831 8.84 47.4765 8.50667 47.8231 8.16C48.1965 7.78667 48.5965 7.45333 49.0231 7.16C49.4498 6.86667 49.8898 6.62667 50.3431 6.44C50.7965 6.25333 51.2498 6.16 51.7031 6.16C52.2898 6.16 52.7831 6.26667 53.1831 6.48C53.6098 6.66667 53.9698 6.93333 54.2631 7.28C54.5565 7.6 54.7965 7.98667 54.9831 8.44C55.1698 8.89333 55.3165 9.37333 55.4231 9.88C55.8231 9.42667 56.2498 8.98667 56.7031 8.56C57.1565 8.10667 57.6231 7.70667 58.1031 7.36C58.6098 6.98667 59.1431 6.69334 59.7031 6.48C60.2898 6.24 60.9031 6.12 61.5431 6.12C62.3431 6.12 62.9965 6.36 63.5031 6.84C64.0098 7.32 64.3698 7.93333 64.5831 8.68C64.7698 9.13333 64.9031 9.65333 64.9831 10.24C65.0898 10.8 65.1698 11.3867 65.2231 12C65.2765 12.5867 65.3031 13.1733 65.3031 13.76C65.3298 14.3467 65.3431 14.88 65.3431 15.36C65.3431 15.8667 65.3698 16.4933 65.4231 17.24C65.5031 17.96 65.6498 18.6667 65.8631 19.36C66.0765 20.0267 66.3965 20.6 66.8231 21.08C67.2498 21.56 67.8231 21.8 68.5431 21.8C68.7565 21.8 68.9165 21.7867 69.0231 21.76H69.1831C69.2098 21.76 69.3031 22.0133 69.4631 22.52C69.5965 23.08 69.6231 23.6533 69.5431 24.24C69.4631 24.8533 69.1698 25.44 68.6631 26C68.0765 26.5333 67.1565 26.8 65.9031 26.8C64.9698 26.8 64.1698 26.4267 63.5031 25.68C62.9431 24.96 62.4765 24.0267 62.1031 22.88C61.8098 21.6267 61.6098 20.36 61.5031 19.08C61.4231 17.8 61.3831 16.52 61.3831 15.24C61.3831 15 61.3698 14.72 61.3431 14.4C61.3431 14.08 61.3165 13.7467 61.2631 13.4C61.2365 13.0533 61.1831 12.7333 61.1031 12.44C61.0231 12.12 60.9031 11.8667 60.7431 11.68C60.5298 11.3333 60.2498 11.12 59.9031 11.04C59.5565 10.9333 59.1965 10.88 58.8231 10.88C58.2365 10.88 57.6898 11.0533 57.1831 11.4C56.7031 11.6933 56.2631 12.04 55.8631 12.44C55.9165 12.92 55.9565 13.4133 55.9831 13.92C56.0098 14.4 56.0365 14.9067 56.0631 15.44C56.0898 15.9733 56.1031 16.52 56.1031 17.08C56.1031 17.6133 56.1031 18.1733 56.1031 18.76V22.2C56.1031 22.7867 56.1031 23.36 56.1031 23.92C56.1031 24.48 56.1298 25.0267 56.1831 25.56C56.1831 25.72 56.0898 25.84 55.9031 25.92C55.7431 26 55.5431 26.0667 55.3031 26.12C55.0898 26.1733 54.8631 26.2 54.6231 26.2C54.4098 26.2267 54.2498 26.24 54.1431 26.24C54.0365 26.24 53.8631 26.2267 53.6231 26.2C53.4098 26.2 53.1831 26.1733 52.9431 26.12C52.7298 26.0933 52.5298 26.0267 52.3431 25.92C52.1831 25.84 52.1031 25.72 52.1031 25.56C52.1031 24.4933 52.1031 23.48 52.1031 22.52C52.1298 21.56 52.1565 20.6267 52.1831 19.72C52.2365 18.8133 52.2498 17.9867 52.2231 17.24C52.2231 16.4667 52.1965 15.7467 52.1431 15.08C52.1431 14.68 52.1165 14.24 52.0631 13.76C52.0098 13.28 51.9031 12.8267 51.7431 12.4C51.5831 11.9733 51.3431 11.6133 51.0231 11.32C50.7298 11.0267 50.3165 10.88 49.7831 10.88C49.2765 10.88 48.7831 10.96 48.3031 11.12C47.8498 11.2533 47.4365 11.4933 47.0631 11.84C47.0631 12.0267 47.0631 12.3867 47.0631 12.92C47.0631 13.4267 47.0631 13.9867 47.0631 14.6C47.0631 15.1867 47.0631 15.76 47.0631 16.32C47.0631 16.8533 47.0631 17.2667 47.0631 17.56C47.0631 18.28 47.0765 19.08 47.1031 19.96C47.1298 20.84 47.1565 21.6667 47.1831 22.44C47.2098 23.2133 47.2365 23.9067 47.2631 24.52C47.2898 25.1067 47.3031 25.48 47.3031 25.64C47.3031 25.8267 47.0765 25.9867 46.6231 26.12C46.4098 26.1733 46.1831 26.2133 45.9431 26.24C45.7298 26.2667 45.4898 26.28 45.2231 26.28C44.9298 26.28 44.6631 26.2667 44.4231 26.24C44.2098 26.2133 43.9965 26.1733 43.7831 26.12C43.3298 25.9867 43.1031 25.8267 43.1031 25.64C43.1031 25.48 43.1165 25.0533 43.1431 24.36C43.1698 23.64 43.1965 22.8533 43.2231 22C43.2765 21.1467 43.3165 20.3067 43.3431 19.48C43.3698 18.6533 43.3831 18.04 43.3831 17.64C43.3831 16.5467 43.3831 15.48 43.3831 14.44C43.4098 13.4 43.3698 12.4933 43.2631 11.72C43.1565 10.9467 42.9831 10.3467 42.7431 9.92C42.5031 9.49333 42.1165 9.34667 41.5831 9.48C41.3965 8.6 41.5165 7.84 41.9431 7.2C42.3698 6.53333 43.1165 6.2 44.1831 6.2Z" fill="black"/>
<path d="M72.23 6.2C72.87 6.2 73.3633 6.32 73.71 6.56C74.0567 6.77333 74.31 7.04 74.47 7.36C74.6567 7.68 74.7767 8.01334 74.83 8.36C74.8833 8.68 74.9367 8.94667 74.99 9.16C75.23 8.84 75.5233 8.50667 75.87 8.16C76.2433 7.78667 76.6433 7.45333 77.07 7.16C77.4967 6.86667 77.9367 6.62667 78.39 6.44C78.8433 6.25333 79.2967 6.16 79.75 6.16C80.3367 6.16 80.83 6.26667 81.23 6.48C81.6567 6.66667 82.0167 6.93333 82.31 7.28C82.6033 7.6 82.8433 7.98667 83.03 8.44C83.2167 8.89333 83.3633 9.37333 83.47 9.88C83.87 9.42667 84.2967 8.98667 84.75 8.56C85.2033 8.10667 85.67 7.70667 86.15 7.36C86.6567 6.98667 87.19 6.69334 87.75 6.48C88.3367 6.24 88.95 6.12 89.59 6.12C90.39 6.12 91.0433 6.36 91.55 6.84C92.0567 7.32 92.4167 7.93333 92.63 8.68C92.8167 9.13333 92.95 9.65333 93.03 10.24C93.1367 10.8 93.2167 11.3867 93.27 12C93.3233 12.5867 93.35 13.1733 93.35 13.76C93.3767 14.3467 93.39 14.88 93.39 15.36C93.39 15.8667 93.4167 16.4933 93.47 17.24C93.55 17.96 93.6967 18.6667 93.91 19.36C94.1233 20.0267 94.4433 20.6 94.87 21.08C95.2967 21.56 95.87 21.8 96.59 21.8C96.8033 21.8 96.9633 21.7867 97.07 21.76H97.23C97.2567 21.76 97.35 22.0133 97.51 22.52C97.6433 23.08 97.67 23.6533 97.59 24.24C97.51 24.8533 97.2167 25.44 96.71 26C96.1233 26.5333 95.2033 26.8 93.95 26.8C93.0167 26.8 92.2167 26.4267 91.55 25.68C90.99 24.96 90.5233 24.0267 90.15 22.88C89.8567 21.6267 89.6567 20.36 89.55 19.08C89.47 17.8 89.43 16.52 89.43 15.24C89.43 15 89.4167 14.72 89.39 14.4C89.39 14.08 89.3633 13.7467 89.31 13.4C89.2833 13.0533 89.23 12.7333 89.15 12.44C89.07 12.12 88.95 11.8667 88.79 11.68C88.5767 11.3333 88.2967 11.12 87.95 11.04C87.6033 10.9333 87.2433 10.88 86.87 10.88C86.2833 10.88 85.7367 11.0533 85.23 11.4C84.75 11.6933 84.31 12.04 83.91 12.44C83.9633 12.92 84.0033 13.4133 84.03 13.92C84.0567 14.4 84.0833 14.9067 84.11 15.44C84.1367 15.9733 84.15 16.52 84.15 17.08C84.15 17.6133 84.15 18.1733 84.15 18.76V22.2C84.15 22.7867 84.15 23.36 84.15 23.92C84.15 24.48 84.1767 25.0267 84.23 25.56C84.23 25.72 84.1367 25.84 83.95 25.92C83.79 26 83.59 26.0667 83.35 26.12C83.1367 26.1733 82.91 26.2 82.67 26.2C82.4567 26.2267 82.2967 26.24 82.19 26.24C82.0833 26.24 81.91 26.2267 81.67 26.2C81.4567 26.2 81.23 26.1733 80.99 26.12C80.7767 26.0933 80.5767 26.0267 80.39 25.92C80.23 25.84 80.15 25.72 80.15 25.56C80.15 24.4933 80.15 23.48 80.15 22.52C80.1767 21.56 80.2033 20.6267 80.23 19.72C80.2833 18.8133 80.2967 17.9867 80.27 17.24C80.27 16.4667 80.2433 15.7467 80.19 15.08C80.19 14.68 80.1633 14.24 80.11 13.76C80.0567 13.28 79.95 12.8267 79.79 12.4C79.63 11.9733 79.39 11.6133 79.07 11.32C78.7767 11.0267 78.3633 10.88 77.83 10.88C77.3233 10.88 76.83 10.96 76.35 11.12C75.8967 11.2533 75.4833 11.4933 75.11 11.84C75.11 12.0267 75.11 12.3867 75.11 12.92C75.11 13.4267 75.11 13.9867 75.11 14.6C75.11 15.1867 75.11 15.76 75.11 16.32C75.11 16.8533 75.11 17.2667 75.11 17.56C75.11 18.28 75.1233 19.08 75.15 19.96C75.1767 20.84 75.2033 21.6667 75.23 22.44C75.2567 23.2133 75.2833 23.9067 75.31 24.52C75.3367 25.1067 75.35 25.48 75.35 25.64C75.35 25.8267 75.1233 25.9867 74.67 26.12C74.4567 26.1733 74.23 26.2133 73.99 26.24C73.7767 26.2667 73.5367 26.28 73.27 26.28C72.9767 26.28 72.71 26.2667 72.47 26.24C72.2567 26.2133 72.0433 26.1733 71.83 26.12C71.3767 25.9867 71.15 25.8267 71.15 25.64C71.15 25.48 71.1633 25.0533 71.19 24.36C71.2167 23.64 71.2433 22.8533 71.27 22C71.3233 21.1467 71.3633 20.3067 71.39 19.48C71.4167 18.6533 71.43 18.04 71.43 17.64C71.43 16.5467 71.43 15.48 71.43 14.44C71.4567 13.4 71.4167 12.4933 71.31 11.72C71.2033 10.9467 71.03 10.3467 70.79 9.92C70.55 9.49333 70.1633 9.34667 69.63 9.48C69.4433 8.6 69.5633 7.84 69.99 7.2C70.4167 6.53333 71.1633 6.2 72.23 6.2Z" fill="black"/>
<path d="M97.9969 16.24C97.9969 14.48 98.2769 12.9867 98.8369 11.76C99.3969 10.5333 100.09 9.54667 100.917 8.8C101.744 8.02667 102.61 7.46667 103.517 7.12C104.424 6.77333 105.224 6.6 105.917 6.6C106.85 6.6 107.744 6.73333 108.597 7C109.477 7.26667 110.25 7.66667 110.917 8.2C111.584 8.70667 112.117 9.33333 112.517 10.08C112.944 10.8267 113.197 11.6933 113.277 12.68C113.357 13.72 113.197 14.68 112.797 15.56C112.344 16.6533 111.637 17.4533 110.677 17.96C109.717 18.4667 108.664 18.72 107.517 18.72C106.05 18.72 104.85 18.6133 103.917 18.4C103.49 18.2667 103.104 18.1467 102.757 18.04C102.437 17.9333 102.157 17.8133 101.917 17.68C101.917 18.3467 102.05 18.9467 102.317 19.48C102.61 19.9867 102.97 20.4133 103.397 20.76C103.85 21.1067 104.37 21.3733 104.957 21.56C105.544 21.72 106.13 21.8 106.717 21.8C107.437 21.8 108.13 21.7467 108.797 21.64C109.49 21.5333 110.037 21.12 110.437 20.4C110.65 20.4 110.877 20.44 111.117 20.52C111.384 20.5733 111.624 20.68 111.837 20.84C112.077 21 112.277 21.2133 112.437 21.48C112.597 21.7467 112.677 22.0933 112.677 22.52C112.677 22.8667 112.597 23.2667 112.437 23.72C112.277 24.1733 111.97 24.6 111.517 25C111.064 25.3733 110.41 25.6933 109.557 25.96C108.704 26.2267 107.584 26.36 106.197 26.36C104.944 26.36 103.81 26.12 102.797 25.64C101.784 25.1867 100.917 24.52 100.197 23.64C99.5035 22.76 98.9569 21.6933 98.5569 20.44C98.1835 19.1867 97.9969 17.7867 97.9969 16.24ZM101.997 14.72C102.61 14.96 103.304 15.1867 104.077 15.4C104.85 15.5867 105.57 15.68 106.237 15.68C108.184 15.68 109.157 14.7067 109.157 12.76C109.21 12.0667 108.997 11.4933 108.517 11.04C108.064 10.5333 107.33 10.28 106.317 10.28C105.65 10.28 105.064 10.4 104.557 10.64C104.05 10.88 103.624 11.2 103.277 11.6C102.93 12 102.65 12.4667 102.437 13C102.224 13.5333 102.077 14.1067 101.997 14.72Z" fill="black"/>
<path d="M116.767 6.2C117.407 6.2 117.914 6.34667 118.287 6.64C118.66 6.90667 118.94 7.24 119.127 7.64C119.314 8.04 119.434 8.45333 119.487 8.88C119.54 9.30667 119.58 9.68 119.607 10C119.794 9.49333 120.047 8.97333 120.367 8.44C120.714 7.88 121.114 7.38667 121.567 6.96C122.02 6.50667 122.514 6.14667 123.047 5.88C123.607 5.58667 124.18 5.44 124.767 5.44C125.46 5.44 126.1 5.57333 126.687 5.84C127.3 6.18667 127.834 6.65333 128.287 7.24C128.74 7.82667 128.967 8.49333 128.967 9.24C128.967 9.34667 128.967 9.46667 128.967 9.6C128.967 9.73333 128.954 9.90667 128.927 10.12C128.927 10.68 128.794 11.1467 128.527 11.52C128.287 11.8933 127.967 12.2 127.567 12.44C127.167 12.6533 126.714 12.8 126.207 12.88C125.727 12.96 125.26 13 124.807 13C124.807 12.1733 124.54 11.4533 124.007 10.84C123.74 10.6267 123.354 10.4933 122.847 10.44C122.18 10.44 121.647 10.64 121.247 11.04C120.847 11.4133 120.487 11.8667 120.167 12.4L119.687 13.48V17.32C119.687 17.56 119.7 18.0933 119.727 18.92C119.754 19.72 119.78 20.5867 119.807 21.52C119.834 22.4267 119.86 23.28 119.887 24.08C119.914 24.8533 119.927 25.32 119.927 25.48C119.927 25.6133 119.834 25.72 119.647 25.8C119.487 25.88 119.287 25.9467 119.047 26C118.807 26.0533 118.567 26.0933 118.327 26.12C118.114 26.1467 117.954 26.16 117.847 26.16C117.74 26.16 117.567 26.1467 117.327 26.12C117.114 26.12 116.887 26.0933 116.647 26.04C116.407 25.9867 116.194 25.9067 116.007 25.8C115.82 25.72 115.727 25.6133 115.727 25.48C115.727 25.32 115.74 24.88 115.767 24.16C115.794 23.44 115.82 22.6533 115.847 21.8C115.874 20.92 115.9 20.0667 115.927 19.24C115.954 18.4133 115.967 17.7867 115.967 17.36C115.967 17.0933 115.98 16.7067 116.007 16.2C116.034 15.6667 116.047 15.0933 116.047 14.48C116.047 13.84 116.02 13.2 115.967 12.56C115.914 11.92 115.82 11.3467 115.687 10.84C115.554 10.3333 115.367 9.94667 115.127 9.68C114.887 9.41334 114.567 9.33334 114.167 9.44C114.06 9.04 114.02 8.65333 114.047 8.28C114.1 7.88 114.234 7.53333 114.447 7.24C114.687 6.92 114.994 6.66667 115.367 6.48C115.74 6.29333 116.207 6.2 116.767 6.2Z" fill="black"/>
<path d="M135.597 6.48C137.277 6.48 138.57 6.72 139.477 7.2C140.41 7.65333 140.903 8.29333 140.957 9.12C140.983 9.57333 140.89 10.0133 140.677 10.44C140.463 10.84 140.17 11.1067 139.797 11.24C139.317 10.7067 138.717 10.36 137.997 10.2C137.277 10.0133 136.623 9.92 136.037 9.92C135.45 9.94667 134.903 10.12 134.397 10.44C133.89 10.7333 133.637 11.1867 133.637 11.8C133.637 12.1733 133.717 12.4933 133.877 12.76C134.037 13 134.25 13.2133 134.517 13.4C134.81 13.56 135.117 13.72 135.437 13.88C135.783 14.04 136.13 14.2 136.477 14.36C137.25 14.7333 137.997 15.1067 138.717 15.48C139.437 15.8267 140.063 16.24 140.597 16.72C141.157 17.2 141.597 17.8 141.917 18.52C142.237 19.2133 142.397 20.1067 142.397 21.2C142.397 22.1333 142.223 22.9333 141.877 23.6C141.53 24.24 141.063 24.7733 140.477 25.2C139.89 25.6 139.223 25.8933 138.477 26.08C137.757 26.2667 136.997 26.36 136.197 26.36C135.157 26.36 134.183 26.2 133.277 25.88C132.397 25.5867 131.73 25.1467 131.277 24.56C131.01 24.2133 130.823 23.8133 130.717 23.36C130.61 22.9067 130.583 22.4533 130.637 22C130.69 21.5467 130.81 21.1333 130.997 20.76C131.21 20.3867 131.49 20.1067 131.837 19.92C132.13 20.4267 132.45 20.8267 132.797 21.12C133.143 21.3867 133.49 21.5867 133.837 21.72C134.183 21.8533 134.503 21.9333 134.797 21.96C135.117 21.9867 135.397 22 135.637 22C136.25 22 136.823 21.84 137.357 21.52C137.89 21.2 138.157 20.6533 138.157 19.88C138.157 19.4533 137.983 19.04 137.637 18.64C137.317 18.2133 136.743 17.8533 135.917 17.56C135.677 17.48 135.223 17.3467 134.557 17.16C133.917 16.9467 133.237 16.64 132.517 16.24C131.823 15.84 131.197 15.3067 130.637 14.64C130.103 13.9733 129.837 13.1467 129.837 12.16C129.837 11.3067 130.01 10.5333 130.357 9.84C130.703 9.12 131.143 8.52 131.677 8.04C132.237 7.53333 132.85 7.14667 133.517 6.88C134.21 6.61333 134.903 6.48 135.597 6.48Z" fill="black"/>
</svg>
